<svg xmlns="http://www.w3.org/2000/svg" fill="none" viewBox="0 0 19 19" height="19" width="19">
<rect fill="#F5F5F5" height="19" width="19"></rect>
<rect stroke-width="1.12952" stroke="#095946" fill="white" height="16.9428" width="16.9428" y="1.14777" x="0.896119"></rect>
<g clip-path="url(#clip0_0_1)">
<path fill="#095946" d="M8.6516 14.8272C8.53822 14.959 8.34212 14.9691 8.21583 14.8496L3.44188 10.3312C3.31559 10.2117 3.3101 10.0106 3.42954 9.88428L4.95055 8.27706C5.07006 8.15078 5.27115 8.14529 5.39744 8.26473L8.00526 10.7328C8.13155 10.8523 8.32764 10.8422 8.44102 10.7105L13.5358 4.7908C13.6492 4.65902 13.8498 4.64397 13.9815 4.75743L15.6586 6.20085C15.7903 6.31423 15.8054 6.51489 15.6919 6.64667L8.6516 14.8272Z"></path>
</g>
<defs>
<clipPath id="clip0_0_1">
<rect transform="translate(3.34337 3.59481)" fill="white" height="12.4247" width="12.4247"></rect>
</clipPath>
</defs>
</svg>
