<svg xmlns="http://www.w3.org/2000/svg" fill="none" viewBox="0 0 17 17" height="17" width="17">
<g clip-path="url(#clip0_184_1988)">
<path fill="#009370" d="M6.83393 16.5107C7.04192 16.5996 7.28375 16.5254 7.40523 16.3335L12.9328 7.55081C13.0223 7.40866 13.0277 7.22917 12.9467 7.08253C12.8658 6.93544 12.711 6.84411 12.5432 6.84411H8.85413L10.2261 1.39919C10.2815 1.17923 10.1694 0.952045 9.96117 0.862529C9.75426 0.773474 9.51089 0.848127 9.38987 1.03975L3.86231 9.82242C3.7728 9.96457 3.76739 10.1441 3.84837 10.2907C3.92935 10.4378 4.08409 10.5291 4.25188 10.5291H7.94097L6.56897 15.974C6.51363 16.194 6.62563 16.4212 6.83393 16.5107Z"></path>
</g>
<defs>
<clipPath id="clip0_184_1988">
<rect transform="translate(0.536133 0.825195)" fill="white" height="15.7228" width="15.7228"></rect>
</clipPath>
</defs>
</svg>
