<svg width="28" height="27" viewBox="0 0 28 27" fill="none" xmlns="http://www.w3.org/2000/svg">
<g clip-path="url(#clip0_184_1766)">
<path d="M21.1117 26.1158H5.43319C5.33699 26.1158 5.24473 26.0776 5.17671 26.0096C5.10868 25.9416 5.07047 25.8493 5.07047 25.7531V23.0541C5.07047 22.9579 5.10868 22.8657 5.17671 22.7976C5.24473 22.7296 5.33699 22.6914 5.43319 22.6914H21.1117C21.2079 22.6914 21.3001 22.7296 21.3681 22.7976C21.4362 22.8657 21.4744 22.9579 21.4744 23.0541V25.7531C21.4744 25.8493 21.4362 25.9416 21.3681 26.0096C21.3001 26.0776 21.2079 26.1158 21.1117 26.1158ZM5.7959 25.3904H20.7489V23.4168H5.7959V25.3904Z" fill="#E3FFDE"/>
<path d="M14.1928 14.3924C14.1302 14.3926 14.0687 14.3763 14.0143 14.3453L9.35123 11.7036C9.26754 11.6562 9.20611 11.5775 9.18047 11.4847C9.15483 11.392 9.16706 11.2929 9.21448 11.2092L13.5228 3.61211C13.5703 3.52842 13.649 3.46699 13.7417 3.44135C13.8344 3.41571 13.9335 3.42794 14.0172 3.47536L18.6803 6.11704C18.7218 6.14052 18.7583 6.17195 18.7876 6.20954C18.8169 6.24712 18.8386 6.29011 18.8513 6.33606C18.864 6.38201 18.8675 6.43002 18.8616 6.47733C18.8558 6.52464 18.8406 6.57033 18.8171 6.61179L17.8987 8.22769C17.8751 8.26911 17.8437 8.30549 17.8061 8.33475C17.7685 8.36401 17.7255 8.38557 17.6796 8.39822C17.6337 8.41087 17.5857 8.41435 17.5384 8.40846C17.4912 8.40257 17.4455 8.38742 17.4041 8.36389C17.3627 8.34036 17.3263 8.30891 17.2971 8.27132C17.2678 8.23373 17.2462 8.19074 17.2336 8.14482C17.2209 8.0989 17.2175 8.05093 17.2233 8.00366C17.2292 7.95639 17.2444 7.91075 17.2679 7.86933L18.0068 6.56898L13.9752 4.28386L10.0244 11.2513L14.0564 13.5364L15.747 10.5542C15.7945 10.4705 15.8733 10.4091 15.966 10.3835C16.0588 10.3578 16.1579 10.3701 16.2416 10.4176C16.3253 10.4651 16.3867 10.5439 16.4123 10.6366C16.4379 10.7294 16.4256 10.8285 16.3782 10.9122L14.5087 14.2096C14.4769 14.2653 14.4309 14.3116 14.3754 14.3437C14.3199 14.3758 14.2569 14.3926 14.1928 14.3924Z" fill="#E3FFDE"/>
<path d="M12.1202 16.2658C12.0575 16.2658 11.9959 16.2496 11.9414 16.2187L8.8086 14.4414C8.72491 14.3939 8.66349 14.3152 8.63784 14.2225C8.6122 14.1298 8.62443 14.0307 8.67186 13.947L9.97945 11.6434C10.0269 11.5597 10.1056 11.4982 10.1983 11.4726C10.291 11.447 10.3901 11.4592 10.4738 11.5066L13.607 13.2839C13.6907 13.3314 13.7521 13.4101 13.7778 13.5028C13.8034 13.5955 13.7912 13.6946 13.7437 13.7783L12.4358 16.0845C12.3887 16.1679 12.3104 16.2294 12.2181 16.2553C12.1862 16.2635 12.1532 16.267 12.1202 16.2658ZM9.4818 13.9901L11.9846 15.4087L12.9342 13.7333L10.4314 12.3151L9.4818 13.9901Z" fill="#E3FFDE"/>
<path d="M17.5999 6.28559C17.5373 6.28559 17.4757 6.26934 17.4211 6.23844L14.5596 4.616C14.476 4.56851 14.4147 4.48975 14.3891 4.39704C14.3635 4.30433 14.3758 4.20526 14.4233 4.12161L15.4788 2.25978C15.5263 2.17615 15.605 2.11481 15.6977 2.08923C15.7904 2.06366 15.8895 2.07595 15.9732 2.1234L18.8332 3.74584C18.9169 3.79327 18.9783 3.872 19.0039 3.96471C19.0296 4.05743 19.0174 4.15653 18.9699 4.24022L17.9144 6.10169C17.8829 6.15736 17.8372 6.20369 17.7819 6.23598C17.7267 6.26828 17.6639 6.2854 17.5999 6.28559ZM15.2332 4.16369L17.4636 5.42849L18.1611 4.19779L15.9314 2.93335L15.2332 4.16369Z" fill="#E3FFDE"/>
<path d="M19.1958 4.73095C19.1332 4.73089 19.0717 4.71464 19.0173 4.6838L15.0742 2.44764C14.9905 2.40022 14.9291 2.32149 14.9034 2.22877C14.8778 2.13606 14.89 2.03695 14.9375 1.95326L15.6513 0.694628C15.6987 0.610937 15.7774 0.549514 15.8702 0.523869C15.9629 0.498225 16.062 0.51046 16.1457 0.557884L20.0891 2.79295C20.1728 2.84038 20.2343 2.91911 20.2599 3.01182C20.2855 3.10454 20.2733 3.20364 20.2259 3.28733L19.5124 4.54597C19.4808 4.60215 19.4348 4.64891 19.3792 4.68143C19.3235 4.71394 19.2602 4.73103 19.1958 4.73095ZM15.7474 1.99497L19.0601 3.87349L19.4159 3.24562L16.1032 1.36783L15.7474 1.99497Z" fill="#E3FFDE"/>
<path d="M18.2422 21.654C18.1668 21.654 18.0934 21.6304 18.032 21.5867C17.9707 21.5429 17.9244 21.4812 17.8998 21.4099L17.3242 19.7476C17.3077 19.6992 17.3016 19.6478 17.3063 19.5969C17.3111 19.5459 17.3266 19.4966 17.3517 19.4521C17.3769 19.4075 17.4112 19.3688 17.4524 19.3385C17.4936 19.3082 17.5408 19.2869 17.5908 19.2761C18.5463 19.07 19.4055 18.5504 20.0317 17.7997C20.6579 17.0491 21.015 16.1106 21.0463 15.1336C21.0777 14.1566 20.7813 13.1972 20.2045 12.408C19.6277 11.6188 18.8036 11.0451 17.8632 10.7783C17.8033 10.7614 17.7489 10.7293 17.705 10.6852C17.6611 10.6412 17.6293 10.5865 17.6126 10.5266C17.5959 10.4667 17.5949 10.4035 17.6097 10.3431C17.6245 10.2827 17.6546 10.2271 17.697 10.1816C17.86 10.0044 17.9641 9.78119 17.9952 9.5425C18.0263 9.3038 17.9828 9.06133 17.8708 8.84829C17.8383 8.78662 17.8242 8.71689 17.8303 8.64745C17.8364 8.578 17.8624 8.51178 17.9051 8.45671C17.9479 8.40164 18.0056 8.36006 18.0713 8.33694C18.1371 8.31382 18.2081 8.31014 18.2759 8.32634C19.768 8.68559 21.0964 9.53499 22.0486 10.7386C23.0008 11.9422 23.5217 13.4305 23.5279 14.9652C23.5341 16.4999 23.0254 17.9923 22.083 19.2036C21.1406 20.4149 19.8191 21.2751 18.33 21.6464C18.3011 21.6525 18.2717 21.6551 18.2422 21.654ZM18.1381 19.8804L18.474 20.8506C19.705 20.4707 20.7851 19.7128 21.5611 18.6843C22.337 17.6559 22.7694 16.4093 22.7969 15.1212C22.8243 13.8332 22.4455 12.5693 21.7141 11.5087C20.9826 10.4481 19.9358 9.64486 18.7221 9.21282C18.7275 9.27158 18.7304 9.33143 18.7304 9.39128C18.731 9.68545 18.6629 9.97569 18.5317 10.239C19.5205 10.6266 20.3639 11.3129 20.9443 12.2023C21.5248 13.0918 21.8135 14.1401 21.7702 15.2013C21.7269 16.2625 21.3537 17.2838 20.7027 18.123C20.0517 18.9622 19.1552 19.5775 18.1381 19.8833V19.8804Z" fill="#E3FFDE"/>
<path d="M18.8505 23.4179H12.0677C12.0099 23.4179 11.9529 23.4041 11.9015 23.3776C11.8501 23.3511 11.8058 23.3127 11.7723 23.2656C11.7387 23.2185 11.7169 23.164 11.7087 23.1068C11.7005 23.0496 11.706 22.9912 11.7249 22.9366L13.1413 18.8379C13.166 18.7666 13.2123 18.7048 13.2737 18.661C13.3351 18.6173 13.4087 18.5938 13.4841 18.5938H17.4345C17.5099 18.5938 17.5834 18.6173 17.6449 18.661C17.7063 18.7048 17.7526 18.7666 17.7772 18.8379L19.1937 22.9366C19.2126 22.9912 19.2181 23.0496 19.2099 23.1069C19.2016 23.1642 19.1798 23.2186 19.1462 23.2657C19.1126 23.3128 19.0683 23.3512 19.0168 23.3777C18.9654 23.4042 18.9084 23.418 18.8505 23.4179ZM12.5755 22.6925H18.3427L17.1769 19.3192H13.742L12.5755 22.6925Z" fill="#E3FFDE"/>
<path d="M12.9292 20.925H8.67706C8.58087 20.925 8.48861 20.8868 8.42058 20.8188C8.35256 20.7508 8.31435 20.6585 8.31435 20.5623V18.9555C8.31435 18.8593 8.35256 18.767 8.42058 18.699C8.48861 18.631 8.58087 18.5928 8.67706 18.5928H13.4838C13.5416 18.5928 13.5985 18.6066 13.6499 18.6331C13.7012 18.6596 13.7455 18.6979 13.779 18.745C13.8126 18.792 13.8344 18.8464 13.8427 18.9036C13.8509 18.9608 13.8454 19.0191 13.8266 19.0737L13.272 20.6809C13.2473 20.7522 13.201 20.814 13.1396 20.8578C13.0782 20.9015 13.0046 20.925 12.9292 20.925ZM9.03978 20.1996H12.6706L12.9749 19.3182H9.03978V20.1996Z" fill="#E3FFDE"/>
<path d="M16.8236 11.297C16.4466 11.297 16.0781 11.1852 15.7647 10.9758C15.4512 10.7664 15.2069 10.4687 15.0626 10.1204C14.9184 9.77208 14.8806 9.38883 14.9542 9.01909C15.0277 8.64934 15.2092 8.30971 15.4758 8.04314C15.7424 7.77657 16.082 7.59504 16.4518 7.52149C16.8215 7.44794 17.2048 7.48569 17.553 7.62996C17.9013 7.77422 18.199 8.01853 18.4085 8.33198C18.6179 8.64544 18.7297 9.01396 18.7297 9.39095C18.7292 9.89632 18.5282 10.3809 18.1709 10.7382C17.8135 11.0956 17.329 11.2965 16.8236 11.297ZM16.8236 8.21066C16.5901 8.21066 16.3618 8.27992 16.1676 8.40966C15.9735 8.53941 15.8222 8.72382 15.7328 8.93958C15.6435 9.15534 15.6201 9.39274 15.6657 9.62177C15.7113 9.85081 15.8237 10.0612 15.9889 10.2263C16.1541 10.3914 16.3645 10.5038 16.5935 10.5493C16.8226 10.5948 17.06 10.5714 17.2757 10.482C17.4914 10.3926 17.6758 10.2412 17.8055 10.047C17.9352 9.85277 18.0043 9.62447 18.0043 9.39095C18.0039 9.07797 17.8794 8.77793 17.658 8.55666C17.4367 8.33538 17.1366 8.21095 16.8236 8.21066Z" fill="#E3FFDE"/>
</g>
<defs>
<clipPath id="clip0_184_1766">
<rect width="26.8411" height="26.8411" fill="white" transform="translate(0.878559)"/>
</clipPath>
</defs>
</svg>
