<svg width="18" height="18" viewBox="0 0 18 18" fill="none" xmlns="http://www.w3.org/2000/svg">
<g clip-path="url(#clip0_182_213)">
<path d="M7.32503 17.3911C7.5473 17.4861 7.80573 17.4068 7.93555 17.2017L13.8425 7.8162C13.9382 7.66429 13.944 7.47248 13.8574 7.31578C13.7709 7.15858 13.6055 7.06099 13.4262 7.06099H9.48391L10.9501 1.24231C11.0092 1.00724 10.8895 0.764463 10.6669 0.668803C10.4458 0.573634 10.1858 0.653412 10.0564 0.858187L4.14943 10.2437C4.05377 10.3956 4.048 10.5875 4.13454 10.7442C4.22107 10.9014 4.38644 10.9989 4.56575 10.9989H8.50807L7.04189 16.8176C6.98276 17.0527 7.10244 17.2955 7.32503 17.3911Z" fill="#009370"/>
</g>
<defs>
<clipPath id="clip0_182_213">
<rect width="16.8021" height="16.8021" fill="white" transform="translate(0.594925 0.628876)"/>
</clipPath>
</defs>
</svg>
