<svg xmlns="http://www.w3.org/2000/svg" fill="none" viewBox="0 0 15 15" height="15" width="15">
<g clip-path="url(#clip0_184_2013)">
<path fill="#009370" d="M13.503 3.91321C13.4854 3.52706 13.4854 3.15847 13.4854 2.78987C13.4854 2.49906 13.2497 2.2633 12.9589 2.2633C10.7648 2.2633 9.09738 1.63143 7.71075 0.279908C7.50599 0.0792234 7.17833 0.0792234 6.97356 0.279908C5.58694 1.63143 3.91948 2.2633 1.72546 2.2633C1.43465 2.2633 1.19889 2.49906 1.19889 2.78987C1.19889 3.15847 1.19889 3.52706 1.18134 3.91321C1.11113 7.59917 1.00582 12.6542 7.16664 14.778L7.34216 14.8131L7.51768 14.778C13.6609 12.6542 13.5732 7.61672 13.503 3.91321ZM6.92091 9.02089C6.82087 9.11369 6.68872 9.16402 6.55231 9.16131H6.53476C6.39328 9.15476 6.26044 9.09148 6.16616 8.98579L4.53381 7.17791L5.32366 6.47583L6.60497 7.89755L9.44842 5.19452L10.1681 5.96681L6.92091 9.02089Z"></path>
</g>
<defs>
<clipPath id="clip0_184_2013">
<rect transform="translate(0 0.129395)" fill="white" height="14.6837" width="14.6837"></rect>
</clipPath>
</defs>
</svg>
