<svg xmlns="http://www.w3.org/2000/svg" fill="none" viewBox="0 0 17 17" height="17" width="17">
<path fill="#009370" d="M11.8725 8.72224L12.1443 8.54435L12.4161 8.72224C12.7101 8.91497 12.9745 9.06322 13.2191 9.16946C13.2636 9.18923 13.3056 9.20653 13.3501 9.22135C13.5107 8.9545 13.6021 8.64318 13.6021 8.30962C13.6021 7.32623 12.804 6.52569 11.8157 6.52569H10.7557C11.3314 6.52569 11.7984 6.05623 11.7984 5.483V1.5791H10.3431V4.1364C10.3431 4.40572 10.1232 4.62562 9.85139 4.62562H4.15368C3.30866 4.62562 2.55753 5.2458 2.47847 6.08341C2.38952 7.04703 3.14065 7.85499 4.0845 7.85499C3.19253 7.85499 2.02383 8.5394 2.02383 10.096C2.02383 11.9961 3.19253 12.5125 4.0845 12.5125H7.34598C7.66719 12.5125 7.92168 12.7719 7.92168 13.0882V15.3638L8.96931 15.3663V12.2679C8.96931 11.7885 8.58139 11.3981 8.10205 11.3981H6.46884C6.11057 11.3981 5.81654 11.1066 5.81654 10.7458C5.81654 10.3851 6.11057 10.0936 6.46884 10.0936H9.34241V9.23371L9.92799 9.34242C10.6149 9.47337 11.2968 9.10028 11.8725 8.72224ZM7.556 8.10207H4.79362C4.68244 8.10207 4.59349 7.99088 4.59349 7.85499C4.59349 7.71909 4.68244 7.6079 4.79362 7.6079H7.556C7.66472 7.6079 7.75367 7.71909 7.75367 7.85499C7.75367 7.99088 7.66472 8.10207 7.556 8.10207ZM6.33789 6.77277C6.21682 6.77277 6.12046 6.66158 6.12046 6.52569C6.12046 6.38979 6.21682 6.2786 6.33789 6.2786H10.2047C10.3258 6.2786 10.4222 6.38979 10.4222 6.52569C10.4222 6.66158 10.3258 6.77277 10.2047 6.77277H6.33789Z"></path>
<path fill="#009370" d="M13.0214 9.62201C12.72 9.49105 12.426 9.32057 12.1443 9.13525C11.4376 9.59977 10.6667 9.98522 9.83655 9.82955V12.8291C9.83655 13.4641 10.4147 14.0448 10.9904 14.4623C11.5686 14.8799 12.1443 15.1344 12.1443 15.1344C12.1443 15.1344 12.7225 14.8799 13.2982 14.4623C13.8763 14.0448 14.452 13.4641 14.452 12.8291V9.82955C13.9529 9.92345 13.4761 9.81967 13.0214 9.62201ZM13.3723 12.3844H12.636C12.5001 12.3844 12.3889 12.4931 12.3889 12.6315V13.3628H11.8997V12.6315C11.8997 12.4931 11.791 12.3844 11.6526 12.3844H10.9163V11.8902H11.6526C11.791 11.8902 11.8997 11.7815 11.8997 11.6431V10.9118H12.3889V11.6431C12.3889 11.7815 12.5001 11.8902 12.636 11.8902H13.3723V12.3844Z"></path>
</svg>
