<svg width="30" height="30" viewBox="0 0 30 30" fill="none" xmlns="http://www.w3.org/2000/svg">
<path d="M8.92529 20.6128C8.54967 20.6169 8.19085 20.7691 7.92671 21.0362C7.66257 21.3032 7.51442 21.6637 7.51443 22.0394C7.51443 22.415 7.66259 22.7755 7.92675 23.0426C8.1909 23.3096 8.54972 23.4618 8.92534 23.4659C9.30096 23.4618 9.65978 23.3096 9.92392 23.0425C10.1881 22.7754 10.3362 22.415 10.3362 22.0393C10.3362 21.6637 10.188 21.3032 9.92388 21.0361C9.65973 20.7691 9.3009 20.6169 8.92529 20.6128ZM8.92529 22.5503C8.79108 22.5483 8.66304 22.4936 8.56884 22.398C8.47463 22.3024 8.42182 22.1736 8.42183 22.0393C8.42183 21.9051 8.47464 21.7763 8.56885 21.6807C8.66307 21.5851 8.79111 21.5304 8.92531 21.5284C9.05952 21.5304 9.18756 21.5851 9.28177 21.6807C9.37597 21.7763 9.42878 21.9051 9.42878 22.0394C9.42877 22.1736 9.37596 22.3024 9.28175 22.398C9.18754 22.4936 9.05949 22.5483 8.92529 22.5503Z" fill="#E3FFDE"/>
<path d="M14.167 18.1909C13.6631 18.1954 13.1815 18.3987 12.8268 18.7566C12.4721 19.1145 12.2731 19.5979 12.2731 20.1018C12.2731 20.6057 12.4721 21.0892 12.8268 21.447C13.1815 21.8049 13.6632 22.0082 14.1671 22.0127C14.6709 22.0082 15.1526 21.8049 15.5073 21.447C15.862 21.0891 16.061 20.6056 16.061 20.1018C16.061 19.5979 15.862 19.1144 15.5072 18.7565C15.1525 18.3987 14.6708 18.1954 14.167 18.1909ZM14.167 21.097C13.905 21.094 13.6548 20.9879 13.4705 20.8016C13.2863 20.6152 13.183 20.3638 13.183 20.1018C13.183 19.8398 13.2863 19.5883 13.4706 19.402C13.6548 19.2157 13.905 19.1095 14.167 19.1066C14.4291 19.1094 14.6795 19.2155 14.8639 19.4018C15.0482 19.5882 15.1516 19.8397 15.1516 20.1018C15.1516 20.3639 15.0482 20.6155 14.8639 20.8018C14.6795 20.9881 14.4291 21.0942 14.167 21.097Z" fill="#E3FFDE"/>
<path d="M26.9323 22.674L24.6826 21.3751V18.7767C24.6826 18.6964 24.6614 18.6174 24.6213 18.5478C24.5811 18.4782 24.5233 18.4204 24.4537 18.3802L21.975 16.949C21.9054 16.9088 21.8264 16.8877 21.7461 16.8877C21.6657 16.8877 21.5868 16.9088 21.5172 16.949L19.7452 17.9722L16.554 10.7919V4.7904C16.8375 4.66371 17.0693 4.44398 17.2109 4.16759C17.3525 3.8912 17.3955 3.57474 17.3326 3.2706C17.2698 2.96647 17.105 2.69291 16.8655 2.49523C16.626 2.29754 16.3262 2.1876 16.0156 2.18359H8.96282C8.65211 2.18726 8.35198 2.29704 8.11223 2.49471C7.87247 2.69238 7.7075 2.96608 7.64466 3.2704C7.58183 3.57471 7.62491 3.89137 7.76677 4.16783C7.90862 4.4443 8.14073 4.66397 8.42458 4.7904L8.42452 10.7919L2.37718 24.3982C2.22814 24.7428 2.16664 25.1189 2.19814 25.4929C2.22965 25.867 2.35319 26.2275 2.55776 26.5422C2.76233 26.857 3.04158 27.1163 3.37063 27.297C3.69968 27.4777 4.06831 27.5742 4.44369 27.5779L18.7185 27.578C18.8446 27.6339 19.1074 27.8452 19.2634 27.8216C19.3103 27.9569 21.6553 26.4697 21.7441 26.4603L23.9958 27.7604C24.0654 27.8005 24.1444 27.8216 24.2247 27.8216C24.3051 27.8216 24.384 27.8005 24.4537 27.7604L26.9323 26.3292C27.0019 26.2891 27.0598 26.2312 27.0999 26.1616C27.1401 26.092 27.1613 26.0131 27.1612 25.9327V23.0706C27.1613 22.9902 27.1401 22.9113 27.0999 22.8416C27.0598 22.772 27.0019 22.7142 26.9323 22.674ZM8.96282 3.09926H16.0157C16.1319 3.10153 16.2426 3.1493 16.324 3.23229C16.4054 3.31529 16.451 3.42689 16.4509 3.54313C16.4509 3.65936 16.4053 3.77096 16.324 3.85395C16.2426 3.93694 16.1319 3.98469 16.0157 3.98696H8.96282C8.84661 3.98469 8.73592 3.93693 8.65453 3.85394C8.57315 3.77095 8.52756 3.65935 8.52756 3.54311C8.52756 3.42687 8.57315 3.31527 8.65453 3.23228C8.73592 3.14929 8.84661 3.10153 8.96282 3.09926ZM9.30081 11.0751C9.34248 10.8679 9.35571 10.656 9.34015 10.4452H10.863C10.9829 10.4429 11.0971 10.3937 11.1811 10.3081C11.2651 10.2225 11.3122 10.1073 11.3122 9.98737C11.3122 9.86743 11.2651 9.75228 11.1811 9.66667C11.0971 9.58105 10.9829 9.53182 10.863 9.52954H9.34019V8.19096H10.863C10.9828 8.18862 11.097 8.13936 11.181 8.05376C11.2649 7.96815 11.3119 7.85304 11.3119 7.73314C11.3119 7.61324 11.2649 7.49812 11.181 7.41252C11.097 7.32692 10.9828 7.27765 10.863 7.27532H9.34019V4.9026H15.6384V10.8892C15.6384 10.9532 15.6518 11.0166 15.6777 11.0751L17.3408 14.8173C16.0183 14.6504 15.8641 13.9806 14.2604 13.998C12.4663 13.9804 12.454 14.8133 10.8031 14.8357C9.42393 14.8402 9.26557 14.2123 7.98362 14.0389L9.30081 11.0751ZM4.44364 26.6623C4.22005 26.6607 4.00035 26.6036 3.80423 26.4962C3.60811 26.3889 3.44168 26.2345 3.31985 26.047C3.19802 25.8595 3.1246 25.6448 3.10615 25.4219C3.08771 25.1991 3.12482 24.9752 3.21416 24.7702L7.59167 14.9208C8.04195 14.9432 8.48115 15.0683 8.87565 15.2865C9.46699 15.6059 10.1312 15.766 10.8031 15.7513C11.4751 15.766 12.1394 15.6059 12.7309 15.2867C13.1981 15.0277 13.7264 14.8988 14.2604 14.9136C14.7945 14.8988 15.3227 15.0277 15.7899 15.2867C16.3815 15.6059 17.0458 15.766 17.7178 15.7513C17.7302 15.7513 17.7406 15.7452 17.7528 15.7442L18.9533 18.4456C18.9081 18.4882 18.872 18.5395 18.8473 18.5964C18.8226 18.6533 18.8098 18.7147 18.8096 18.7768V21.3728L16.5558 22.6741C16.4862 22.7142 16.4284 22.772 16.3882 22.8417C16.348 22.9113 16.3269 22.9902 16.3269 23.0706V25.9327C16.3269 26.0131 16.348 26.092 16.3882 26.1616C16.4284 26.2313 16.4862 26.2891 16.5558 26.3292L17.1327 26.6623L4.44364 26.6623ZM21.2842 25.6684L19.2634 26.8351L17.2425 25.6684V23.3348L19.2634 22.1682L21.2842 23.3348V25.6684ZM19.7252 21.3746V19.041L21.7461 17.8743L23.7669 19.041V21.3746L21.7461 22.5413L19.7252 21.3746ZM26.2456 25.6684L24.2247 26.8351L22.2039 25.6684V23.3348L24.2247 22.1682L26.2456 23.3348V25.6684Z" fill="#E3FFDE"/>
</svg>
