<svg width="27" height="27" viewBox="0 0 27 27" fill="none" xmlns="http://www.w3.org/2000/svg">
<g clip-path="url(#clip0_184_1833)">
<path d="M23.2145 4.97192C23.1901 4.93439 23.1597 4.9012 23.1243 4.87374C21.9236 3.52477 20.4509 2.44518 18.8032 1.70592C17.1554 0.96666 15.3699 0.584473 13.5639 0.584473C11.7579 0.584473 9.97241 0.96666 8.32466 1.70592C6.67692 2.44518 5.20428 3.52477 4.00351 4.87374C3.96994 4.90032 3.94086 4.93212 3.91735 4.96791V4.97793C2.29631 6.83233 1.24362 9.11435 0.885134 11.5512C0.526646 13.988 0.877528 16.4765 1.89583 18.7192C2.91414 20.9618 4.55677 22.8638 6.62737 24.1977C8.69796 25.5316 11.1089 26.2409 13.5719 26.2409C16.035 26.2409 18.4459 25.5316 20.5165 24.1977C22.5871 22.8638 24.2297 20.9618 25.248 18.7192C26.2663 16.4765 26.6172 13.988 26.2587 11.5512C25.9002 9.11435 24.8476 6.83233 23.2265 4.97793L23.2145 4.97192ZM22.8138 21.0833C21.9033 20.5518 20.9371 20.1225 19.9325 19.8029C20.5555 17.866 20.8844 15.8465 20.9083 13.812H25.5788C25.4933 16.4768 24.5201 19.0367 22.8138 21.0853V21.0833ZM1.55505 13.812H6.22556C6.24925 15.8472 6.57817 17.8673 7.20133 19.8049C6.19677 20.1245 5.23051 20.5539 4.32009 21.0853C2.61373 19.0367 1.64055 16.4768 1.55505 13.812ZM4.35014 5.70726C5.25607 6.23383 6.21685 6.6598 7.21536 6.97757C6.5831 8.92715 6.2494 10.9612 6.22556 13.0106H1.55505C1.64238 10.3318 2.62668 7.75987 4.35014 5.70726ZM13.9677 7.9293C15.7278 7.90436 17.4778 7.65935 19.1771 7.19997C19.7769 9.07943 20.093 11.0378 20.1149 13.0106H13.9677V7.9293ZM13.9677 7.12784V1.41344C15.9994 1.63985 17.7746 3.57537 18.8966 6.4446C17.2878 6.87333 15.6324 7.1028 13.9677 7.12784ZM13.1662 7.12784C11.5014 7.10282 9.84603 6.87335 8.23722 6.4446C9.35926 3.57537 11.1345 1.63985 13.1662 1.41344V7.12784ZM13.1662 7.9293V13.0106H7.02702C7.0463 11.0382 7.35965 9.07984 7.95671 7.19997C9.65601 7.65933 11.4061 7.90434 13.1662 7.9293ZM7.02702 13.812H13.1662V18.8492C11.4059 18.8754 9.65582 19.1217 7.95671 19.5825C7.36403 17.7154 7.05074 15.7708 7.02702 13.812ZM13.1662 19.6506V25.4091C11.1265 25.1807 9.33522 23.2292 8.22119 20.3379C9.83501 19.9064 11.4959 19.6756 13.1662 19.6506ZM13.9677 19.6506C15.638 19.6756 17.2988 19.9064 18.9127 20.3379C17.7986 23.2292 16.0074 25.1807 13.9677 25.4091V19.6506ZM13.9677 18.8492V13.812H20.1068C20.0829 15.7702 19.7696 17.714 19.1771 19.5805C17.4779 19.1204 15.7279 18.8747 13.9677 18.8492ZM20.9083 13.0106C20.8845 10.9612 20.5507 8.92715 19.9185 6.97757C20.917 6.6598 21.8778 6.23383 22.7837 5.70726C24.5072 7.75987 25.4915 10.3318 25.5788 13.0106H20.9083ZM22.2407 5.10015C21.4172 5.56208 20.5484 5.93808 19.648 6.22219C18.9087 4.32273 17.8828 2.79195 16.6806 1.80014C18.8006 2.37176 20.7235 3.51304 22.2407 5.10015ZM10.4533 1.80014C9.25107 2.78594 8.2272 4.32073 7.48786 6.22219C6.58742 5.93808 5.71861 5.56208 4.89513 5.10015C6.41183 3.51335 8.33402 2.37209 10.4533 1.80014ZM4.86508 21.6944C5.69173 21.2272 6.56466 20.8471 7.46982 20.5603C8.21117 22.4798 9.24105 24.0306 10.4513 25.0224C8.31884 24.4473 6.38608 23.2958 4.86508 21.6944ZM16.6866 25.0224C17.8888 24.0206 18.9267 22.4798 19.668 20.5603C20.5732 20.8472 21.4461 21.2272 22.2728 21.6944C20.7501 23.2967 18.8152 24.4483 16.6806 25.0224H16.6866Z" fill="#E3FFDE"/>
</g>
<defs>
<clipPath id="clip0_184_1833">
<rect width="25.6467" height="25.6467" fill="white" transform="translate(0.743629 0.588379)"/>
</clipPath>
</defs>
</svg>
