<svg width="14" height="16" viewBox="0 0 14 16" fill="none" xmlns="http://www.w3.org/2000/svg">
<path d="M10.9944 8.3449L11.2849 8.15479L11.5753 8.3449C11.8895 8.55086 12.1721 8.70928 12.4335 8.82282C12.481 8.84394 12.5259 8.86243 12.5734 8.87827C12.745 8.5931 12.8427 8.26041 12.8427 7.90395C12.8427 6.85306 11.9899 5.99756 10.9337 5.99756H9.80095C10.4162 5.99756 10.9152 5.49588 10.9152 4.8833V0.711426H9.36V3.44427C9.36 3.73208 9.125 3.96707 8.83455 3.96707H2.74573C1.8427 3.96707 1.04001 4.62982 0.955516 5.52493C0.86046 6.55469 1.66315 7.41811 2.67179 7.41811C1.7186 7.41811 0.469677 8.14951 0.469677 9.81298C0.469677 11.8435 1.7186 12.3953 2.67179 12.3953H6.15716C6.50042 12.3953 6.77238 12.6726 6.77238 13.0105V15.4424L7.89192 15.445V12.1339C7.89192 11.6217 7.47737 11.2045 6.96513 11.2045H5.21981C4.83695 11.2045 4.52274 10.8929 4.52274 10.5074C4.52274 10.1219 4.83695 9.81034 5.21981 9.81034H8.29063V8.89147L8.91641 9.00765C9.65045 9.14759 10.3792 8.74889 10.9944 8.3449ZM6.3816 7.68216H3.4296C3.31078 7.68216 3.21572 7.56334 3.21572 7.41811C3.21572 7.27289 3.31078 7.15407 3.4296 7.15407H6.3816C6.49778 7.15407 6.59283 7.27289 6.59283 7.41811C6.59283 7.56334 6.49778 7.68216 6.3816 7.68216ZM5.07986 6.26161C4.95048 6.26161 4.84751 6.14279 4.84751 5.99756C4.84751 5.85234 4.95048 5.73352 5.07986 5.73352H9.21214C9.34152 5.73352 9.44449 5.85234 9.44449 5.99756C9.44449 6.14279 9.34152 6.26161 9.21214 6.26161H5.07986Z" fill="#009370"/>
<path d="M12.2222 9.30605C11.9001 9.16611 11.5859 8.98392 11.2849 8.78589C10.5297 9.28229 9.70589 9.6942 8.8187 9.52785V12.7333C8.8187 13.4119 9.43656 14.0324 10.0518 14.4787C10.6696 14.9249 11.2849 15.1968 11.2849 15.1968C11.2849 15.1968 11.9027 14.9249 12.5179 14.4787C13.1358 14.0324 13.751 13.4119 13.751 12.7333V9.52785C13.2177 9.62819 12.7081 9.51729 12.2222 9.30605ZM12.5972 12.2581H11.8103C11.6651 12.2581 11.5463 12.3742 11.5463 12.5221V13.3037H11.0235V12.5221C11.0235 12.3742 10.9073 12.2581 10.7594 12.2581H9.97257V11.73H10.7594C10.9073 11.73 11.0235 11.6138 11.0235 11.4659V10.6844H11.5463V11.4659C11.5463 11.6138 11.6651 11.73 11.8103 11.73H12.5972V12.2581Z" fill="#009370"/>
</svg>
