<svg width="39" height="39" viewBox="0 0 39 39" fill="none" xmlns="http://www.w3.org/2000/svg">
<path d="M23.1563 15.9597V19.9329H19.8453V23.244H15.8721V19.9329H12.561V15.9597H15.8721V12.6487H19.8453V15.9597H23.1563Z" fill="#E3FFDE"/>
<path d="M20.9215 33.1592C20.9215 32.5265 21.1698 31.9353 21.6133 31.4859L22.3464 30.7528C22.311 30.67 22.2755 30.5931 22.2459 30.5104H21.2053C20.9333 30.5104 20.6732 30.4572 20.4249 30.3685C19.6089 31.007 18.7575 31.5983 17.847 32.1127C15.7953 30.9538 13.9684 29.4579 12.4074 27.6487C7.11572 21.5292 6.19337 13.4231 6.18154 8.56894C6.38257 8.56894 6.58951 8.57485 6.79053 8.57485C8.21546 8.57485 9.64629 8.46842 11.0594 8.24966C13.3771 7.89491 15.6534 7.25635 17.847 6.34582C20.0405 7.25635 22.3169 7.89491 24.6346 8.24966C26.0418 8.46251 27.4785 8.57485 28.9034 8.57485C29.1045 8.57485 29.3114 8.57485 29.5124 8.56894C29.5124 11.2532 29.2168 14.9249 28.0757 18.7089C28.1525 18.703 28.2235 18.6853 28.3004 18.6853C29.607 18.6853 30.6654 19.7436 30.6654 21.0503V21.411C33.4029 13.9553 32.8294 6.65919 32.6756 4.98003C30.7777 5.26974 28.1762 5.4412 25.1371 4.98003C22.0922 4.51885 19.6148 3.56693 17.8529 2.72144C16.091 3.56693 13.6136 4.51293 10.5686 4.98003C7.5296 5.4412 4.92808 5.26974 3.03016 4.98003C2.81731 7.30365 1.79444 20.4295 9.90644 29.8127C12.6085 32.9345 15.5529 34.7556 17.8529 35.8317C18.8344 35.3705 19.9341 34.7674 21.0752 33.9988C20.9747 33.7327 20.9156 33.4548 20.9156 33.1651L20.9215 33.1592Z" fill="#E3FFDE"/>
<path d="M35.4014 26.9576H33.4917C33.3557 26.3663 33.1251 25.8106 32.8058 25.3139L34.1598 23.9599C34.621 23.4988 34.621 22.7479 34.1598 22.2867C33.6986 21.8255 32.9477 21.8255 32.4865 22.2867L31.1326 23.6407C30.6359 23.3273 30.0801 23.0908 29.4889 22.9548V21.0451C29.4889 20.3947 28.9567 19.8625 28.3064 19.8625C27.656 19.8625 27.1239 20.3947 27.1239 21.0451V22.9548C26.5326 23.0908 25.9768 23.3214 25.4802 23.6407L24.1262 22.2867C23.665 21.8255 22.9141 21.8255 22.4529 22.2867C21.9918 22.7479 21.9918 23.4988 22.4529 23.9599L23.8069 25.3139C23.4936 25.8106 23.2571 26.3663 23.1211 26.9576H21.2113C20.5609 26.9576 20.0288 27.4897 20.0288 28.1401C20.0288 28.7905 20.5609 29.3226 21.2113 29.3226H23.1211C23.2571 29.9139 23.4876 30.4696 23.8069 30.9663L22.4529 32.3203C21.9918 32.7814 21.9918 33.5323 22.4529 33.9935C22.9141 34.4547 23.665 34.4547 24.1262 33.9935L25.4802 32.6395C25.9768 32.9529 26.5326 33.1894 27.1239 33.3254V35.2352C27.1239 35.8855 27.656 36.4177 28.3064 36.4177C28.9567 36.4177 29.4889 35.8855 29.4889 35.2352V33.3254C30.0801 33.1894 30.6359 32.9588 31.1326 32.6395L32.4865 33.9935C32.9477 34.4547 33.6986 34.4547 34.1598 33.9935C34.621 33.5323 34.621 32.7814 34.1598 32.3203L32.8058 30.9663C33.1192 30.4696 33.3557 29.9139 33.4917 29.3226H35.4014C36.0518 29.3226 36.5839 28.7905 36.5839 28.1401C36.5839 27.4897 36.0518 26.9576 35.4014 26.9576ZM27.1239 27.5489C26.4735 27.5489 25.9413 27.0167 25.9413 26.3663C25.9413 25.716 26.4735 25.1838 27.1239 25.1838C27.7742 25.1838 28.3064 25.716 28.3064 26.3663C28.3064 27.0167 27.7742 27.5489 27.1239 27.5489ZM30.0801 31.0964C29.4297 31.0964 28.8976 30.5642 28.8976 29.9139C28.8976 29.2635 29.4297 28.7314 30.0801 28.7314C30.7305 28.7314 31.2626 29.2635 31.2626 29.9139C31.2626 30.5642 30.7305 31.0964 30.0801 31.0964Z" fill="#E3FFDE"/>
</svg>
