<svg width="23" height="22" viewBox="0 0 23 22" fill="none" xmlns="http://www.w3.org/2000/svg">
<g clip-path="url(#clip0_184_1829)">
<path d="M20.2984 4.45092L12.0362 0.0484392C11.9137 -0.0169782 11.7668 -0.0160602 11.6451 0.0507346L3.61162 4.45322C3.47987 4.52552 3.39816 4.6637 3.39816 4.81405V10.5648C3.40298 15.2921 6.20376 19.5688 10.5351 21.4627L11.6502 21.9486C11.7544 21.9941 11.873 21.9943 11.9775 21.9491L13.234 21.4064C17.6456 19.5536 20.5157 15.2356 20.5162 10.4507V4.81405C20.5162 4.66209 20.4324 4.52231 20.2984 4.45092ZM19.6935 10.4507C19.6926 14.9058 17.0197 18.9256 12.9119 20.6497L12.9092 20.651L11.815 21.1234L10.8642 20.7087C6.83246 18.9458 4.22517 14.9652 4.22058 10.5648V5.05758L11.8455 0.878667L19.6935 5.06057V10.4507Z" fill="#E3FFDE"/>
<path d="M8.81094 10.2977C8.66335 10.1249 8.40374 10.1045 8.2309 10.2521C8.05806 10.3994 8.03764 10.6593 8.18523 10.8319L10.358 13.3763C10.5031 13.5461 10.7572 13.5693 10.9302 13.4284L15.9906 9.31143C16.1669 9.1682 16.1935 8.90906 16.05 8.73278C15.9068 8.55672 15.6476 8.52987 15.4714 8.67333L10.7227 12.5364L8.81094 10.2977Z" fill="#E3FFDE"/>
</g>
<defs>
<clipPath id="clip0_184_1829">
<rect width="21.9828" height="21.9828" fill="white" transform="translate(0.982643)"/>
</clipPath>
</defs>
</svg>
