<svg width="39" height="38" viewBox="0 0 39 38" fill="none" xmlns="http://www.w3.org/2000/svg">
<path d="M27.7969 19.5175L28.4473 19.0918L29.0976 19.5175C29.8012 19.9786 30.4339 20.3334 31.0192 20.5876C31.1256 20.6349 31.2262 20.6763 31.3326 20.7118C31.7169 20.0732 31.9357 19.3283 31.9357 18.5301C31.9357 16.1769 30.0259 14.2612 27.6609 14.2612H25.1244C26.502 14.2612 27.6195 13.1378 27.6195 11.7661V2.42432H24.137V8.5438C24.137 9.18826 23.6108 9.71448 22.9604 9.71448H9.3261C7.30401 9.71448 5.5066 11.1985 5.3174 13.2029C5.10455 15.5088 6.90196 17.4422 9.16055 17.4422C7.02612 17.4422 4.22949 19.0799 4.22949 22.8048C4.22949 27.3516 7.02612 28.5873 9.16055 28.5873H16.9651C17.7337 28.5873 18.3427 29.2081 18.3427 29.9649V35.4104L20.8496 35.4163V28.002C20.8496 26.8549 19.9214 25.9208 18.7743 25.9208H14.8662C14.0088 25.9208 13.3052 25.2231 13.3052 24.3598C13.3052 23.4966 14.0088 22.7989 14.8662 22.7989H21.7424V20.7414L23.1437 21.0015C24.7874 21.3149 26.4193 20.4221 27.7969 19.5175ZM17.4677 18.0334H10.8574C10.5914 18.0334 10.3785 17.7674 10.3785 17.4422C10.3785 17.117 10.5914 16.8509 10.8574 16.8509H17.4677C17.7278 16.8509 17.9407 17.117 17.9407 17.4422C17.9407 17.7674 17.7278 18.0334 17.4677 18.0334ZM14.5528 14.8525C14.2631 14.8525 14.0325 14.5864 14.0325 14.2612C14.0325 13.936 14.2631 13.67 14.5528 13.67H23.8059C24.0956 13.67 24.3262 13.936 24.3262 14.2612C24.3262 14.5864 24.0956 14.8525 23.8059 14.8525H14.5528Z" fill="#E3FFDE"/>
<path d="M30.5461 21.6699C29.8247 21.3565 29.1211 20.9486 28.4471 20.5051C26.7561 21.6167 24.9114 22.539 22.9248 22.1666V29.3444C22.9248 30.8639 24.3083 32.2533 25.686 33.2526C27.0695 34.2518 28.4471 34.8608 28.4471 34.8608C28.4471 34.8608 29.8307 34.2518 31.2083 33.2526C32.5918 32.2533 33.9694 30.8639 33.9694 29.3444V22.1666C32.7751 22.3912 31.634 22.1429 30.5461 21.6699ZM31.3856 28.2801H29.6237C29.2985 28.2801 29.0325 28.5403 29.0325 28.8714V30.6215H27.8618V28.8714C27.8618 28.5403 27.6016 28.2801 27.2705 28.2801H25.5086V27.0976H27.2705C27.6016 27.0976 27.8618 26.8375 27.8618 26.5064V24.7562H29.0325V26.5064C29.0325 26.8375 29.2985 27.0976 29.6237 27.0976H31.3856V28.2801Z" fill="#E3FFDE"/>
</svg>
