<svg width="16" height="17" viewBox="0 0 16 17" fill="none" xmlns="http://www.w3.org/2000/svg">
<g clip-path="url(#clip0_182_233)">
<path d="M14.4787 4.67243C14.4599 4.25977 14.4599 3.86587 14.4599 3.47198C14.4599 3.1612 14.208 2.90927 13.8972 2.90927C11.5526 2.90927 9.77065 2.23401 8.28885 0.789721C8.07003 0.575261 7.71987 0.575261 7.50105 0.789721C6.01925 2.23401 4.23733 2.90927 1.8927 2.90927C1.58192 2.90927 1.32999 3.1612 1.32999 3.47198C1.32999 3.86587 1.32999 4.25977 1.31123 4.67243C1.2362 8.6114 1.12366 14.0134 7.70738 16.283L7.89495 16.3205L8.08252 16.283C14.6475 14.0134 14.5537 8.63016 14.4787 4.67243ZM7.44478 10.1307C7.33788 10.2299 7.19665 10.2837 7.05088 10.2808H7.03212C6.88093 10.2738 6.73897 10.2062 6.63823 10.0932L4.89382 8.16124L5.73789 7.41095L7.10715 8.93027L10.1458 6.04169L10.9148 6.867L7.44478 10.1307Z" fill="#009370"/>
</g>
<defs>
<clipPath id="clip0_182_233">
<rect width="15.6917" height="15.6917" fill="white" transform="translate(0.0487671 0.628876)"/>
</clipPath>
</defs>
</svg>
