<svg width="28" height="28" viewBox="0 0 28 28" fill="none" xmlns="http://www.w3.org/2000/svg">
<g clip-path="url(#clip0_184_1783)">
<path d="M19.9328 18.3819C19.9315 18.3783 19.9301 18.3746 19.9286 18.3711C19.8486 18.1767 19.6612 18.0513 19.4511 18.0513C19.4509 18.0513 19.4507 18.0513 19.4505 18.0513C19.2401 18.0515 19.0528 18.1774 18.9731 18.3721C18.9719 18.3751 18.9707 18.3781 18.9696 18.3811L16.9228 23.7552C16.8455 23.958 16.9473 24.1849 17.1501 24.2622C17.1961 24.2797 17.2433 24.288 17.2898 24.288C17.4481 24.288 17.5973 24.1916 17.657 24.0349L18.0704 22.9494H20.8169L21.2261 24.0338C21.3027 24.2368 21.5293 24.3392 21.7323 24.2626C21.9353 24.186 22.0377 23.9594 21.9611 23.7563L19.9328 18.3819ZM18.3696 22.1638L19.4499 19.3273L20.5203 22.1638H18.3696Z" fill="#E3FFDE"/>
<path d="M27.5098 18.4403C27.5077 18.2246 27.3322 18.0513 27.1171 18.0513C27.1158 18.0513 27.1144 18.0513 27.1132 18.0513C26.8962 18.0534 26.722 18.231 26.7241 18.4479L26.7654 22.7113L23.6714 18.231C23.5738 18.0896 23.3955 18.0281 23.2313 18.0792C23.0672 18.1304 22.9553 18.2824 22.9553 18.4543V23.8951C22.9553 24.1121 23.1312 24.2879 23.3482 24.2879C23.5652 24.2879 23.741 24.1121 23.741 23.8951V19.7144L26.7036 24.0045C26.8304 24.1879 27.0376 24.2672 27.2311 24.2068C27.4313 24.1444 27.5607 23.9499 27.5607 23.7076L27.5098 18.4403Z" fill="#E3FFDE"/>
<path d="M9.11496 18.8618C9.33195 18.8618 9.50778 18.686 9.50778 18.469C9.50778 18.252 9.33195 18.0762 9.11496 18.0762H6.83912C6.62212 18.0762 6.44629 18.252 6.44629 18.469V23.8703C6.44629 24.0873 6.62212 24.2631 6.83912 24.2631H9.11496C9.33195 24.2631 9.50778 24.0873 9.50778 23.8703C9.50778 23.6533 9.33195 23.4775 9.11496 23.4775H7.23195V21.5624H8.94719C9.16419 21.5624 9.34002 21.3866 9.34002 21.1696C9.34002 20.9526 9.16419 20.7768 8.94719 20.7768H7.23195V18.8618H9.11496V18.8618Z" fill="#E3FFDE"/>
<path d="M16.0187 20.7768H14.3881C14.1711 20.7768 13.9952 20.9526 13.9952 21.1696C13.9952 21.3866 14.1711 21.5624 14.3881 21.5624H15.6061C15.4576 22.9854 14.4976 23.5023 13.6659 23.5023C12.3796 23.5023 11.3332 22.4558 11.3332 21.1696C11.3332 19.8834 12.3797 18.8369 13.6659 18.8369C14.1333 18.8369 14.5843 18.9746 14.9699 19.2351C15.1497 19.3565 15.3939 19.3093 15.5153 19.1295C15.6367 18.9496 15.5894 18.7055 15.4096 18.584C14.8936 18.2355 14.2906 18.0513 13.6658 18.0513C11.9464 18.0513 10.5475 19.4502 10.5475 21.1696C10.5475 22.889 11.9464 24.2879 13.6658 24.2879C15.2824 24.2879 16.4115 23.0056 16.4115 21.1696C16.4115 20.9526 16.2357 20.7768 16.0187 20.7768Z" fill="#E3FFDE"/>
<path d="M5.13636 18.0816C4.93057 18.0131 4.70812 18.1246 4.63977 18.3305L3.11062 22.9334L1.50767 18.3155C1.4366 18.1105 1.21253 18.0017 1.00778 18.0732C0.802832 18.1444 0.694359 18.3682 0.765487 18.5731L2.63016 23.9451C2.70328 24.1507 2.89828 24.2882 3.11617 24.2882H3.11979C3.33914 24.2866 3.53398 24.1461 3.60543 23.9357L5.38531 18.5782C5.45376 18.3723 5.3423 18.1499 5.13636 18.0816Z" fill="#E3FFDE"/>
<path d="M22.133 3.35676C22.111 3.35655 22.089 3.35645 22.067 3.35645C20.2786 3.35645 18.6014 4.04997 17.3378 5.31351C16.8111 5.84032 16.3798 6.44401 16.0561 7.10789C15.961 7.30289 16.042 7.53806 16.237 7.63313C16.4322 7.7284 16.6672 7.64722 16.7622 7.45222C17.0477 6.86675 17.4283 6.33413 17.8934 5.86907C18.9279 4.83447 20.277 4.23303 21.7272 4.15158C21.6458 5.60179 21.0443 6.95086 20.0097 7.98547C19.1246 8.87053 18.0109 9.43934 16.7986 9.63571L19.4683 6.96605C19.6217 6.81259 19.6217 6.5639 19.4683 6.41049C19.3148 6.25713 19.0661 6.25713 18.9127 6.41049L14.6123 10.711C14.0623 11.261 13.7594 11.9923 13.7594 12.77V13.7205C13.7372 13.6969 13.7153 13.673 13.6922 13.65L12.923 12.8808C12.8975 11.1303 12.2065 9.4923 10.9666 8.25248H10.9667C9.70304 6.98889 8.02598 6.29542 6.23767 6.29542C6.21567 6.29542 6.19347 6.29552 6.17147 6.29573C5.9574 6.29778 5.7844 6.47078 5.78236 6.68484C5.76502 8.49792 6.46001 10.2009 7.73911 11.4801C8.97887 12.7198 10.6167 13.4103 12.3669 13.4359L13.1366 14.2056C13.5382 14.6072 13.7594 15.1412 13.7594 15.7091V16.7649C13.7594 16.9819 13.9352 17.1578 14.1522 17.1578C14.3692 17.1578 14.545 16.9819 14.545 16.7649V12.7701C14.545 12.2021 14.7662 11.6682 15.1678 11.2666L15.9375 10.4969C17.6877 10.4712 19.3256 9.78074 20.5653 8.54108C21.8444 7.26188 22.5394 5.5589 22.522 3.74582C22.52 3.5318 22.347 3.3588 22.133 3.35676ZM8.29472 10.9245C7.26012 9.88994 6.65863 8.54082 6.57723 7.09066C8.02739 7.17205 9.37647 7.77355 10.4111 8.80815C11.2956 9.69264 11.8632 10.8072 12.0603 12.0181L9.39171 9.34957C9.23824 9.19621 8.98956 9.19621 8.83614 9.34957C8.68273 9.50304 8.68273 9.75172 8.83614 9.90513L11.5047 12.5737C10.2937 12.3767 9.17927 11.8091 8.29472 10.9245Z" fill="#E3FFDE"/>
</g>
<defs>
<clipPath id="clip0_184_1783">
<rect width="26.8171" height="26.8171" fill="white" transform="translate(0.743629 0.413574)"/>
</clipPath>
</defs>
</svg>
