<svg width="41" height="40" viewBox="0 0 41 40" fill="none" xmlns="http://www.w3.org/2000/svg">
<g clip-path="url(#clip0_185_5472)">
<path d="M8.91227 13.506C8.61841 13.506 8.32455 13.394 8.10042 13.1698L7.10486 12.1742C6.65645 11.7258 6.65645 10.9988 7.10486 10.5504C7.55319 10.102 8.28023 10.102 8.72864 10.5504L9.7242 11.546C10.1726 11.9944 10.1726 12.7213 9.7242 13.1698C9.49999 13.394 9.20613 13.506 8.91227 13.506Z" fill="#E3FFDE"/>
<path d="M18.7673 13.506C18.4734 13.506 18.1796 13.394 17.9554 13.1698C17.507 12.7213 17.507 11.9944 17.9554 11.546L18.951 10.5504C19.3993 10.102 20.1264 10.102 20.5748 10.5504C21.0232 10.9988 21.0232 11.7258 20.5748 12.1742L19.5792 13.1698C19.3549 13.394 19.0611 13.506 18.7673 13.506Z" fill="#E3FFDE"/>
<path d="M13.8396 11.2715C13.2055 11.2715 12.6914 10.7574 12.6914 10.1233V8.71533C12.6914 8.08122 13.2055 7.56714 13.8396 7.56714C14.4737 7.56714 14.9878 8.08122 14.9878 8.71533V10.1233C14.9878 10.7574 14.4737 11.2715 13.8396 11.2715Z" fill="#E3FFDE"/>
<path d="M19.8502 16.6638C18.5226 16.4489 17.2943 15.7851 16.4235 14.7403C15.8069 14.0005 14.8785 13.5295 13.84 13.5295C12.8015 13.5295 11.8731 14.0005 11.2564 14.7403C10.3857 15.7851 9.15737 16.4489 7.82975 16.6638H1.97534C1.34123 16.6638 0.827148 17.1779 0.827148 17.812V20.0116C3.13846 20.0116 4.41143 20.8356 5.34093 21.4372C6.04898 21.8956 6.40439 22.1256 7.35892 22.1256C8.31353 22.1256 8.66893 21.8956 9.37698 21.4372C10.3065 20.8356 11.5794 20.0116 13.8908 20.0116C16.2021 20.0116 17.475 20.8356 18.4045 21.4372C19.1125 21.8956 19.4679 22.1256 20.4225 22.1256C21.3771 22.1256 21.7325 21.8956 22.4406 21.4372C23.3701 20.8356 24.6431 20.0116 26.9544 20.0116C29.2658 20.0116 30.5388 20.8356 31.4683 21.4372C32.1764 21.8956 32.5319 22.1257 33.4866 22.1257C34.4413 22.1257 34.7968 21.8956 35.5049 21.4372C36.4344 20.8356 37.7074 20.0116 40.0188 20.0116V17.812C40.0188 17.1779 39.5048 16.6638 38.8706 16.6638H19.8502Z" fill="#E3FFDE"/>
<path d="M33.4866 24.4227C30.2205 24.4227 30.2205 22.3087 26.9544 22.3087C23.6884 22.3087 23.6884 24.4227 20.4225 24.4227C17.1566 24.4227 17.1566 22.3087 13.8908 22.3087C10.6248 22.3087 10.6248 24.4227 7.35892 24.4227C4.09307 24.4227 4.09307 22.3087 0.827148 22.3087V30.6607C0.827148 31.2948 1.34123 31.8089 1.97534 31.8089H38.8706C39.5048 31.8089 40.0188 31.2948 40.0188 30.6607V22.3086C36.7528 22.3086 36.7528 24.4227 33.4866 24.4227ZM7.18049 30.2764C6.32463 30.2845 5.75589 29.339 6.16862 28.5878C6.58618 27.7839 7.77426 27.7831 8.19243 28.5878C8.60494 29.3391 8.03635 30.2845 7.18049 30.2764ZM14.5289 27.98C13.6722 27.9876 13.1058 27.0438 13.5162 26.2914C13.9372 25.4869 15.1212 25.4872 15.5409 26.2914C15.9536 27.0421 15.3844 27.9883 14.5289 27.98ZM20.423 30.2764C19.5674 30.2847 18.9982 29.3386 19.4111 28.5878C19.8555 27.7377 21.1239 27.8002 21.4832 28.6896C21.8034 29.4274 21.2261 30.2881 20.423 30.2764ZM26.7763 27.98C25.9207 27.9882 25.3516 27.0423 25.7644 26.2914C26.2091 25.4411 27.4767 25.5038 27.8364 26.3932C28.1567 27.1309 27.5794 27.9915 26.7763 27.98ZM33.6655 30.2764C32.7585 30.2836 32.2003 29.2415 32.711 28.4914C33.2067 27.7315 34.3875 27.8487 34.7256 28.6896C35.0456 29.4281 34.469 30.2871 33.6655 30.2764Z" fill="#E3FFDE"/>
</g>
<defs>
<clipPath id="clip0_185_5472">
<rect width="39.1917" height="39.1917" fill="white" transform="translate(0.827148 0.0927734)"/>
</clipPath>
</defs>
</svg>
