<svg xmlns="http://www.w3.org/2000/svg" fill="none" viewBox="0 0 17 17" height="17" width="17">
<path fill="#009370" d="M13.9642 3.4269C13.3811 2.84277 12.6167 2.47434 11.7965 2.38214C10.9763 2.28995 10.1491 2.47946 9.45085 2.91956L10.9136 4.40864C10.972 4.47331 11.017 4.54893 11.046 4.63112C11.0751 4.71331 11.0875 4.80044 11.0826 4.88746C11.0777 4.97448 11.0555 5.05966 11.0175 5.13807C10.9794 5.21648 10.9262 5.28657 10.8609 5.34426C10.7391 5.4517 10.5818 5.51037 10.4194 5.50898C10.3264 5.50969 10.2342 5.49068 10.149 5.4532C10.0639 5.41573 9.9876 5.36063 9.92525 5.29155L8.06719 3.4269C7.80075 3.1607 7.49387 2.93832 7.15793 2.76802C6.47253 2.41689 5.69364 2.29153 4.93268 2.40988C4.17172 2.52822 3.46769 2.88421 2.9213 3.4269C2.23757 4.22275 1.86163 5.23725 1.86163 6.28647C1.86163 7.33568 2.23757 8.35018 2.9213 9.14603C4.14682 10.4638 7.12499 13.5144 8.46253 13.5144C9.50356 13.5144 11.5461 11.663 12.9627 10.22C13.3185 9.86421 13.6216 9.56113 13.8852 9.26463L13.984 9.15921C14.6685 8.36008 15.0431 7.34159 15.0394 6.28938C15.0358 5.23717 14.6542 4.22129 13.9642 3.4269ZM9.76053 9.09332H9.10164V9.7522C9.10164 9.92695 9.03223 10.0945 8.90866 10.2181C8.7851 10.3417 8.61751 10.4111 8.44276 10.4111C8.26801 10.4111 8.10042 10.3417 7.97686 10.2181C7.85329 10.0945 7.78387 9.92695 7.78387 9.7522V9.09332H7.12499C6.95024 9.09332 6.78265 9.0239 6.65909 8.90034C6.53552 8.77677 6.4661 8.60918 6.4661 8.43443C6.4661 8.25969 6.53552 8.0921 6.65909 7.96853C6.78265 7.84497 6.95024 7.77555 7.12499 7.77555H7.78387V7.11666C7.78387 6.94191 7.85329 6.77432 7.97686 6.65076C8.10042 6.52719 8.26801 6.45778 8.44276 6.45778C8.61751 6.45778 8.7851 6.52719 8.90866 6.65076C9.03223 6.77432 9.10164 6.94191 9.10164 7.11666V7.77555H9.76053C9.93528 7.77555 10.1029 7.84497 10.2264 7.96853C10.35 8.0921 10.4194 8.25969 10.4194 8.43443C10.4194 8.60918 10.35 8.77677 10.2264 8.90034C10.1029 9.0239 9.93528 9.09332 9.76053 9.09332Z"></path>
</svg>
