<svg xmlns="http://www.w3.org/2000/svg" fill="none" viewBox="0 0 111 21" height="21" width="111">
<path fill="#009370" d="M10.1107 0L12.6245 6.65065L19.7265 6.98629L14.1781 11.4323L16.0536 18.2904L10.1107 14.3875L4.16776 18.2904L6.04317 11.4323L0.494851 6.98629L7.59681 6.65065L10.1107 0Z"></path>
<path fill="#009370" d="M32.6024 0L35.1162 6.65065L42.2182 6.98629L36.6698 11.4323L38.5453 18.2904L32.6024 14.3875L26.6595 18.2904L28.5349 11.4323L22.9866 6.98629L30.0885 6.65065L32.6024 0Z"></path>
<path fill="#009370" d="M55.0941 0L57.6079 6.65065L64.7099 6.98629L59.1615 11.4323L61.037 18.2904L55.0941 14.3875L49.1512 18.2904L51.0266 11.4323L45.4782 6.98629L52.5802 6.65065L55.0941 0Z"></path>
<path fill="#009370" d="M77.5858 0L80.0996 6.65065L87.2016 6.98629L81.6532 11.4323L83.5287 18.2904L77.5858 14.3875L71.6429 18.2904L73.5183 11.4323L67.9699 6.98629L75.0719 6.65065L77.5858 0Z"></path>
<path fill="#009370" d="M100.077 0L102.591 6.65065L109.693 6.98629L104.144 11.4323L106.02 18.2904L100.077 14.3875L94.1341 18.2904L96.0095 11.4323L90.4612 6.98629L97.5631 6.65065L100.077 0Z"></path>
</svg>
