<svg width="15" height="16" viewBox="0 0 15 16" fill="none" xmlns="http://www.w3.org/2000/svg">
<g clip-path="url(#clip0_182_219)">
<path d="M9.14712 5.44661C8.28608 5.44661 8.2439 5.16698 8.2439 4.63088V1.70452C8.2439 1.33009 7.93923 1.02542 7.5648 1.02542C7.19037 1.02542 6.88571 1.33009 6.88571 1.70452V4.63088C6.88571 5.16698 6.84353 5.44661 5.98226 5.44661C5.91968 5.44661 5.86707 5.49725 5.86707 5.55983V6.6917C5.86707 6.75427 5.92014 6.80492 5.98272 6.80492C6.65544 6.80492 7.18783 6.65067 7.56446 6.34624C7.9412 6.65067 8.47451 6.80492 9.14712 6.80492C9.2097 6.80492 9.26254 6.75427 9.26254 6.6917V5.55983C9.26254 5.49725 9.2097 5.44661 9.14712 5.44661Z" fill="#009370"/>
<path d="M6.26179 8.46824C6.18206 7.75275 6.09989 7.01258 6.09989 6.29548C6.09989 4.47548 5.90068 2.056 4.17977 2.056C2.08744 2.056 0.32202 7.61137 0.32202 11.0997C0.321209 11.2098 0.308346 13.805 1.01908 14.5215C1.14864 14.6519 1.29628 14.7182 1.45817 14.7182C1.88591 14.7182 2.09856 14.5548 2.39303 14.329C2.76248 14.0454 3.26821 13.6569 4.55165 13.2869C6.72754 12.6595 6.50144 10.6238 6.26179 8.46824Z" fill="#009370"/>
<path d="M14.8076 11.1006C14.8076 7.61149 13.0423 2.056 10.95 2.056C9.2289 2.056 9.03004 4.47548 9.03004 6.29548C9.03004 7.01258 8.94776 7.75264 8.86826 8.46824C8.62861 10.6238 8.40228 12.6595 10.5784 13.2869C11.8616 13.6569 12.3675 14.0454 12.7368 14.3287C13.0313 14.5548 13.2439 14.7182 13.6716 14.7182C13.8334 14.7182 13.9811 14.6519 14.1106 14.5215C14.8212 13.805 14.8085 11.2099 14.8076 11.1006Z" fill="#009370"/>
</g>
<defs>
<clipPath id="clip0_182_219">
<rect width="14.4859" height="14.4859" fill="white" transform="translate(0.32193 0.628876)"/>
</clipPath>
</defs>
</svg>
