<svg width="18" height="18" viewBox="0 0 18 18" fill="none" xmlns="http://www.w3.org/2000/svg">
<path d="M15.2839 4.07901C14.6607 3.45478 13.8438 3.06106 12.9673 2.96253C12.0908 2.86401 11.2069 3.06653 10.4607 3.53684L12.0238 5.12814C12.0863 5.19725 12.1344 5.27805 12.1654 5.36589C12.1964 5.45372 12.2096 5.54683 12.2044 5.63982C12.1992 5.73281 12.1755 5.82384 12.1349 5.90764C12.0942 5.99143 12.0373 6.06633 11.9675 6.12798C11.8373 6.2428 11.6693 6.30549 11.4957 6.30401C11.3963 6.30477 11.2978 6.28445 11.2068 6.2444C11.1158 6.20435 11.0343 6.14548 10.9676 6.07165L8.98205 4.07901C8.69731 3.79453 8.36936 3.55689 8.01037 3.3749C7.27792 2.99967 6.44556 2.8657 5.63237 2.99217C4.81917 3.11864 4.06681 3.49906 3.48291 4.07901C2.75225 4.92949 2.35051 6.01362 2.35051 7.13486C2.35051 8.25611 2.75225 9.34024 3.48291 10.1907C4.79257 11.5989 7.97516 14.859 9.40451 14.859C10.517 14.859 12.6998 12.8804 14.2136 11.3384C14.5938 10.9582 14.9177 10.6343 15.1994 10.3175L15.305 10.2048C16.0365 9.35082 16.4368 8.26242 16.4329 7.13798C16.429 6.01354 16.0212 4.92793 15.2839 4.07901ZM10.7916 10.1344H10.0875V10.8385C10.0875 11.0252 10.0133 11.2043 9.88127 11.3364C9.74923 11.4684 9.57013 11.5426 9.38339 11.5426C9.19665 11.5426 9.01755 11.4684 8.88551 11.3364C8.75346 11.2043 8.67928 11.0252 8.67928 10.8385V10.1344H7.97516C7.78842 10.1344 7.60933 10.0602 7.47728 9.92816C7.34523 9.79611 7.27105 9.61702 7.27105 9.43028C7.27105 9.24353 7.34523 9.06444 7.47728 8.93239C7.60933 8.80035 7.78842 8.72616 7.97516 8.72616H8.67928V8.02205C8.67928 7.83531 8.75346 7.65621 8.88551 7.52417C9.01755 7.39212 9.19665 7.31793 9.38339 7.31793C9.57013 7.31793 9.74923 7.39212 9.88127 7.52417C10.0133 7.65621 10.0875 7.83531 10.0875 8.02205V8.72616H10.7916C10.9784 8.72616 11.1575 8.80035 11.2895 8.93239C11.4215 9.06444 11.4957 9.24353 11.4957 9.43028C11.4957 9.61702 11.4215 9.79611 11.2895 9.92816C11.1575 10.0602 10.9784 10.1344 10.7916 10.1344Z" fill="#009370"/>
</svg>
