<svg xmlns="http://www.w3.org/2000/svg" fill="none" viewBox="0 0 14 14" height="14" width="14">
<g clip-path="url(#clip0_184_2002)">
<path fill="#009370" d="M8.25832 4.63671C7.4526 4.63671 7.41312 4.37503 7.41312 3.87338V1.13499C7.41312 0.784607 7.12803 0.499512 6.77765 0.499512C6.42727 0.499512 6.14218 0.784607 6.14218 1.13499V3.87338C6.14218 4.37503 6.1027 4.63671 5.29676 4.63671C5.2382 4.63671 5.18896 4.68409 5.18896 4.74265V5.80181C5.18896 5.86037 5.23863 5.90776 5.29719 5.90776C5.9267 5.90776 6.42489 5.76342 6.77732 5.47855C7.12987 5.76342 7.62892 5.90776 8.25832 5.90776C8.31688 5.90776 8.36633 5.86037 8.36633 5.80181V4.74265C8.36633 4.68409 8.31688 4.63671 8.25832 4.63671Z"></path>
<path fill="#009370" d="M5.55834 7.46373C5.48373 6.7942 5.40685 6.10158 5.40685 5.43053C5.40685 3.72744 5.22043 1.46338 3.61006 1.46338C1.65213 1.46338 0.000113264 6.6619 0.000113264 9.92613C-0.000645835 10.0292 -0.012683 12.4577 0.652396 13.1281C0.773634 13.2502 0.91179 13.3123 1.06328 13.3123C1.46355 13.3123 1.66254 13.1593 1.93809 12.948C2.28381 12.6826 2.75705 12.3191 3.95805 11.9729C5.99417 11.3858 5.7826 9.48087 5.55834 7.46373Z"></path>
<path fill="#009370" d="M13.5552 9.927C13.5552 6.66201 11.9033 1.46338 9.9455 1.46338C8.33491 1.46338 8.14882 3.72744 8.14882 5.43053C8.14882 6.10158 8.07183 6.79409 7.99744 7.46373C7.77318 9.48087 7.56139 11.3858 9.59772 11.9729C10.7985 12.3191 11.2719 12.6826 11.6175 12.9478C11.893 13.1593 12.092 13.3123 12.4923 13.3123C12.6437 13.3123 12.7818 13.2502 12.9031 13.1281C13.568 12.4577 13.5561 10.0293 13.5552 9.927Z"></path>
</g>
<defs>
<clipPath id="clip0_184_2002">
<rect transform="translate(0 0.12793)" fill="white" height="13.5554" width="13.5554"></rect>
</clipPath>
</defs>
</svg>
