<svg width="22" height="22" viewBox="0 0 22 22" fill="none" xmlns="http://www.w3.org/2000/svg">
<path d="M10.8511 2.9209C15.1508 2.9209 18.637 6.40639 18.6373 10.7061C18.6373 15.0059 15.151 18.4922 10.8511 18.4922C6.55146 18.4919 3.06596 15.0058 3.06596 10.7061C3.06621 6.40654 6.55161 2.92114 10.8511 2.9209ZM14.0582 7.5C13.7414 7.18328 13.2407 7.16329 12.9009 7.44043L12.8355 7.49902L10.8511 9.48242L8.86772 7.49902L8.80229 7.44043C8.46252 7.16327 7.96179 7.18327 7.64507 7.5C7.32834 7.81673 7.30834 8.31745 7.58549 8.65723L7.64409 8.72266L9.62749 10.7061L7.64409 12.6895C7.30643 13.0271 7.30671 13.5752 7.64409 13.9131C7.98191 14.2509 8.52989 14.2509 8.86772 13.9131L10.8511 11.9297L12.8345 13.9131C13.1723 14.2509 13.7203 14.2509 14.0582 13.9131C14.396 13.5753 14.396 13.0273 14.0582 12.6895L12.0748 10.7061L14.0591 8.72266L14.1177 8.65723C14.3949 8.31747 14.3748 7.81673 14.0582 7.5Z" fill="#575757"/>
</svg>
